<?xml version="1.0" encoding="UTF-8"?>
<svg xmlns="http://www.w3.org/2000/svg" xmlns:xlink="http://www.w3.org/1999/xlink" width="2400" height="2400" viewBox="0 0 2400 2400">

<path fill-rule="evenodd" fill="rgb(87.889099%, 99.609375%, 100%)" fill-opacity="1" d="M 1405.550781 1513.546875 C 1258.589844 1525.304688 1217.261719 1585.078125 1235.128906 1651.144531 C 1257.960938 1735.496094 1379.480469 1816.398438 1490.570312 1852.011719 C 1863.828125 1971.671875 1734.589844 1487.226562 1405.550781 1513.546875 "/>
<path fill-rule="evenodd" fill="rgb(87.889099%, 99.609375%, 100%)" fill-opacity="1" d="M 438.214844 1135.230469 C 523.699219 1282.539062 703.476562 1392.21875 895.140625 1447.921875 C 1029.898438 1487.078125 1112.828125 1500.207031 1202.410156 1493.734375 C 1402.769531 1479.253906 1381.910156 1433.261719 1460.441406 1452.277344 C 1586.03125 1482.691406 1791.941406 1549.949219 1916.410156 1453.085938 C 2062.039062 1339.75 2001.570312 1197.429688 1891.398438 1084.410156 C 1811.261719 1002.191406 1668.109375 944.398438 1543.570312 898.128906 C 1313.050781 812.488281 1271.589844 678.371094 1200.730469 603.039062 C 870.941406 252.449219 268.015625 841.941406 438.214844 1135.230469 "/>
<path fill-rule="evenodd" fill="rgb(87.889099%, 99.609375%, 100%)" fill-opacity="1" d="M 1386.488281 618.378906 C 1308.21875 566.070312 1276.648438 567.96875 1274.738281 594.191406 C 1272.300781 627.660156 1321.679688 697.570312 1373.308594 750.199219 C 1546.789062 927.039062 1561.730469 735.488281 1386.488281 618.378906 "/>
<path fill-rule="evenodd" fill="rgb(98.826599%, 89.0625%, 76.951599%)" fill-opacity="1" d="M 469.304688 891.820312 C 465.109375 877.640625 460.53125 864.960938 461.566406 851.261719 C 462.125 843.890625 464.488281 836.738281 469.789062 829.988281 L 471.660156 827.621094 C 478.070312 819.460938 489.863281 810.191406 477.863281 807.980469 C 472.914062 807.078125 467.496094 809.710938 463.359375 814.21875 C 462.019531 815.671875 459.683594 819.800781 459.683594 819.800781 L 456.148438 824.621094 L 449.136719 819.078125 L 434.578125 811.988281 L 427.199219 808.800781 L 422.285156 810.011719 L 420.734375 810.601562 L 419.039062 814.640625 L 418.027344 818.308594 L 411.386719 818.820312 C 411.386719 818.820312 409.976562 819.988281 409.644531 820.359375 C 409.308594 820.71875 408.292969 824.269531 408.292969 824.269531 L 406.035156 826.121094 L 402.117188 828.800781 L 402.121094 832.949219 L 402.996094 835.660156 L 400.460938 836.46875 L 397.605469 839.449219 L 397.578125 844.238281 C 403.71875 861.21875 406.917969 873.179688 419.410156 883.191406 C 421.921875 885.210938 424.8125 887.140625 428.175781 889.019531 C 432.507812 895.539062 438.304688 902.488281 438.910156 910.53125 L 457.976562 921.980469 L 469.304688 891.820312 "/>
<path fill-rule="evenodd" fill="rgb(0%, 78.90625%, 52.539062%)" fill-opacity="1" d="M 1714.078125 667.960938 L 1031.410156 667.960938 L 1031.410156 995.640625 C 1031.410156 1143.378906 1177.019531 1423.214844 1372.75 1458.8125 C 1568.46875 1423.214844 1714.078125 1143.378906 1714.078125 995.640625 L 1714.078125 667.960938 "/>
<path fill-rule="evenodd" fill="rgb(8.616638%, 96.875%, 67.381287%)" fill-opacity="1" d="M 1645.328125 747.609375 L 1100.160156 747.609375 L 1100.160156 1009.289062 C 1100.160156 1127.269531 1216.441406 1350.738281 1372.75 1379.171875 C 1529.050781 1350.738281 1645.328125 1127.269531 1645.328125 1009.289062 L 1645.328125 747.609375 "/>
<path fill-rule="evenodd" fill="rgb(0%, 78.90625%, 52.539062%)" fill-opacity="1" d="M 1222.761719 984.378906 L 1285.640625 950.660156 L 1352.679688 1053.511719 L 1496.460938 873.75 L 1569.101562 890.578125 L 1347.898438 1150.941406 L 1222.761719 984.378906 "/>
<path fill-rule="evenodd" fill="rgb(75.78125%, 45.092773%, 63.867188%)" fill-opacity="1" d="M 764.390625 1834.339844 C 769.0625 1836.828125 789.289062 1853.269531 789.289062 1853.269531 C 806.902344 1863.9375 823.519531 1874.675781 843.996094 1878.457031 C 848.386719 1879.269531 852.726562 1880.089844 856.433594 1881.054688 C 862.792969 1882.703125 870.1875 1890.753906 862.882812 1897.40625 C 847.648438 1911.273438 804.296875 1902.1875 784.550781 1901.117188 C 778.460938 1900.785156 772.363281 1901.003906 766.273438 1900.949219 C 756.902344 1900.863281 744.511719 1901.636719 735.695312 1898.777344 C 722.28125 1894.433594 725.734375 1886.339844 731.996094 1861.949219 C 732.949219 1858.226562 740.113281 1831.789062 738.414062 1827.449219 L 747.546875 1827.527344 L 748.320312 1839.582031 L 764.390625 1834.339844 "/>
<path fill-rule="evenodd" fill="rgb(22.75238%, 20.776367%, 45.872498%)" fill-opacity="1" d="M 790.1875 1269.03125 C 586.363281 1234.5 681.039062 1402.007812 740.910156 1572.269531 C 750.496094 1596.023438 771.265625 1659.75 804.460938 1649.019531 C 849.546875 1634.441406 823.320312 1547.964844 817.132812 1496.457031 L 812.828125 1462.894531 L 790.1875 1269.03125 "/>
<path fill-rule="evenodd" fill="rgb(98.826599%, 89.0625%, 76.951599%)" fill-opacity="1" d="M 1042.660156 1070.800781 L 1050.550781 1059.828125 L 1056.609375 1058.050781 L 1062.988281 1056.5 L 1066.761719 1054 L 1070.71875 1050.890625 L 1073.839844 1047.691406 L 1077.769531 1045.371094 L 1080.628906 1044.351562 L 1084.191406 1043.03125 L 1085.960938 1040.960938 L 1088.710938 1037.230469 L 1091.480469 1034.359375 L 1092.421875 1031.96875 L 1092.589844 1029.210938 L 1091.898438 1026.699219 L 1090.480469 1025.738281 L 1088.628906 1025.269531 L 1090.320312 1022.738281 L 1091.601562 1019.5 L 1091.398438 1017.679688 L 1089.75 1015.78125 L 1088.558594 1015.308594 L 1087.179688 1015.109375 L 1086.238281 1014.789062 L 1088.871094 1012.578125 C 1090.179688 1011.011719 1089.621094 1008.851562 1088.660156 1007.160156 C 1088.421875 1006.738281 1088.210938 1006.300781 1087.890625 1006 C 1085.988281 1004.210938 1085.101562 1004.5 1082.601562 1004.96875 L 1080.609375 1005.148438 L 1089.140625 997.148438 L 1104.519531 983.191406 L 1107.570312 980.449219 C 1112.589844 975.941406 1107.371094 971.71875 1102.949219 974.28125 L 1101.519531 975.109375 L 1094.539062 980.359375 L 1083.390625 989.441406 L 1075.078125 995.480469 L 1069.230469 999.128906 L 1064.660156 1001.941406 L 1061.820312 1003.800781 L 1057.761719 1003.628906 L 1051.390625 1002.128906 C 1040.53125 1003.628906 1038.648438 1021.578125 1034.03125 1030.710938 C 1032.46875 1036.890625 1033.300781 1037.238281 1030.160156 1043.488281 L 1028.078125 1050.839844 L 1024.738281 1056.738281 L 1042.660156 1070.800781 "/>
<path fill-rule="evenodd" fill="rgb(75.78125%, 45.092773%, 63.867188%)" fill-opacity="1" d="M 911.945312 1070.441406 L 964.964844 1200.210938 L 954.0625 1212.871094 C 929.300781 1262.898438 911.96875 1225.488281 887.484375 1182.019531 C 866.898438 1145.46875 841.605469 1098.28125 827.511719 1059.921875 C 795.738281 973.460938 872.734375 958.730469 911.945312 1070.441406 "/>
<path fill-rule="evenodd" fill="rgb(94.921875%, 74.414062%, 59.959412%)" fill-opacity="1" d="M 755.839844 993.078125 L 778.570312 1002.949219 L 805.285156 1005.96875 L 825.425781 989.808594 L 822.871094 953.328125 L 820.371094 937.078125 L 798.839844 922.488281 L 777.636719 930.230469 L 765.351562 929.960938 L 755.839844 993.078125 "/>
<path fill-rule="evenodd" fill="rgb(24.705505%, 10.984802%, 18.821716%)" fill-opacity="1" d="M 845.023438 867.109375 C 853.15625 882.621094 846.410156 939.488281 841.371094 920.441406 L 836.039062 900.289062 L 835.191406 877.460938 L 834.691406 863.5 L 845.023438 867.109375 "/>
<path fill-rule="evenodd" fill="rgb(98.826599%, 89.0625%, 76.951599%)" fill-opacity="1" d="M 746.007812 918.578125 C 748.730469 931.179688 751.027344 945.660156 757.324219 956.691406 C 768.617188 976.46875 789.683594 987.371094 814.617188 974.980469 C 815.367188 974.609375 816.09375 974.21875 816.789062 973.800781 C 832.769531 964.238281 838.046875 943.910156 839.179688 930.191406 C 839.265625 929.128906 839.550781 928.121094 839.746094 927.128906 C 843.296875 906.101562 845.164062 890.839844 837.855469 875.210938 C 825.074219 847.839844 774.578125 831.558594 754.160156 865.648438 C 743.5625 883.351562 745.992188 899.011719 746.007812 918.578125 "/>
<path fill-rule="evenodd" fill="rgb(24.705505%, 10.984802%, 18.821716%)" fill-opacity="1" d="M 745.785156 904.710938 C 745.664062 896.378906 745.839844 888.570312 747.847656 880.691406 L 742.425781 884.480469 L 741.011719 898.058594 C 742.34375 899.140625 743.75 900.921875 745.171875 903.558594 C 745.375 903.929688 745.578125 904.320312 745.785156 904.710938 "/>
<path fill-rule="evenodd" fill="rgb(24.705505%, 10.984802%, 18.821716%)" fill-opacity="1" d="M 749.390625 881.160156 C 765.769531 854.820312 806.632812 868.800781 832.238281 872.621094 C 852.484375 897.191406 881.03125 815.300781 848.28125 798.480469 C 835.957031 792.160156 791.757812 827.03125 768.894531 833.75 C 740.632812 842.058594 738.03125 877.539062 741.011719 898.058594 L 749.390625 881.160156 "/>
<path fill-rule="evenodd" fill="rgb(24.705505%, 10.984802%, 18.821716%)" fill-opacity="1" d="M 752.457031 868.691406 C 752.058594 868.480469 763.230469 895.980469 745.785156 904.710938 L 744.925781 901 L 745.136719 882.589844 L 752.457031 868.691406 "/>
<path fill-rule="evenodd" fill="rgb(98.826599%, 89.0625%, 76.951599%)" fill-opacity="1" d="M 746.945312 924.210938 L 754.710938 926.398438 L 752.402344 918.058594 C 751.679688 916.609375 748.144531 909.070312 745.171875 903.558594 C 733.878906 882.621094 723.347656 915.679688 746.945312 924.210938 "/>
<path fill-rule="evenodd" fill="rgb(98.826599%, 89.0625%, 76.951599%)" fill-opacity="1" d="M 836.96875 928.050781 L 840.253906 914.789062 C 844.269531 905.109375 851.777344 903.628906 850.074219 914.921875 C 847.589844 931.351562 845.023438 929.230469 836.554688 936.578125 L 836.96875 928.050781 "/>
<path fill-rule="evenodd" fill="rgb(22.75238%, 20.776367%, 45.872498%)" fill-opacity="1" d="M 857.980469 1248.210938 C 652.039062 1266.21875 785.921875 1404.421875 886.820312 1554.0625 C 902.089844 1574.628906 938.265625 1631.054688 967.679688 1612.292969 C 1007.628906 1586.808594 960.425781 1509.75 941.445312 1461.46875 L 928.8125 1430.082031 L 857.980469 1248.210938 "/>
<path fill-rule="evenodd" fill="rgb(75.78125%, 45.092773%, 63.867188%)" fill-opacity="1" d="M 798.367188 993.238281 C 732.800781 983.519531 680.921875 951.769531 667.332031 1013.800781 C 647.78125 1103.039062 693.851562 1163.398438 660.808594 1302.519531 C 701.820312 1362 811.628906 1357.96875 887.929688 1319.011719 C 881.285156 1166.660156 953.53125 960.5 798.367188 993.238281 "/>
<path fill-rule="evenodd" fill="rgb(75.78125%, 45.092773%, 63.867188%)" fill-opacity="1" d="M 912.296875 1199.761719 C 929.714844 1325.21875 1032.988281 1113.070312 1060.558594 1064.578125 L 1025.011719 1034.46875 L 948.425781 1136.730469 C 927.703125 1162.71875 920.609375 1164.5 912.296875 1199.761719 "/>
<path fill-rule="evenodd" fill="rgb(75.78125%, 45.092773%, 63.867188%)" fill-opacity="1" d="M 908.035156 1829.585938 C 912.710938 1832.074219 932.9375 1848.519531 932.9375 1848.519531 C 950.550781 1859.1875 967.164062 1869.921875 987.644531 1873.703125 C 992.035156 1874.515625 996.375 1875.335938 1000.078125 1876.300781 C 1006.441406 1877.949219 1013.828125 1886 1006.53125 1892.652344 C 991.296875 1906.519531 947.941406 1897.433594 928.195312 1896.363281 C 922.105469 1896.03125 916.007812 1896.25 909.921875 1896.195312 C 900.550781 1896.109375 888.160156 1896.882812 879.339844 1894.023438 C 865.929688 1889.679688 869.382812 1881.585938 875.640625 1857.195312 C 876.597656 1853.472656 883.757812 1827.035156 882.0625 1822.695312 L 891.195312 1822.773438 L 891.96875 1834.828125 L 908.035156 1829.585938 "/>
<path fill-rule="evenodd" fill="rgb(22.75238%, 20.776367%, 45.872498%)" fill-opacity="1" d="M 982.132812 1591.378906 C 972.773438 1644.15625 954.84375 1706.277344 944.078125 1757.355469 C 940.214844 1775.683594 936.613281 1794.140625 933.527344 1812.894531 L 928.578125 1840.742188 C 901.90625 1860.214844 882.488281 1862.691406 873.851562 1843.324219 C 878.03125 1792.859375 901.429688 1619.949219 902.054688 1569.316406 L 931.355469 1588.550781 C 931.355469 1588.550781 938.804688 1608.753906 947.347656 1606.320312 C 955.894531 1603.886719 958.855469 1600.5 960.910156 1599.066406 C 962.964844 1597.632812 982.132812 1591.378906 982.132812 1591.378906 "/>
<path fill-rule="evenodd" fill="rgb(94.921875%, 74.414062%, 59.959412%)" fill-opacity="1" d="M 825.425781 989.808594 C 825.425781 989.808594 825.296875 989.628906 825.425781 989.808594 C 825.402344 989.808594 825.378906 989.808594 825.355469 989.800781 C 821.703125 989.351562 811.300781 985.300781 795.320312 983.421875 C 781.511719 981.808594 770.554688 982.808594 762.710938 982.191406 C 760.257812 982 756.390625 984.308594 757.058594 985 C 769.203125 997.609375 803.449219 1025 825.425781 989.808594 "/>
<path fill-rule="evenodd" fill="rgb(75.78125%, 45.092773%, 63.867188%)" fill-opacity="1" d="M 638.285156 1065.359375 L 668.472656 1055.460938 C 764.695312 1023.070312 776.335938 957.539062 670.828125 984.839844 C 629.527344 995.519531 573.953125 1018.800781 531.40625 1028.140625 C 483.921875 1038.558594 444.425781 1145.601562 638.285156 1065.359375 "/>
<path fill-rule="evenodd" fill="rgb(24.705505%, 10.984802%, 18.821716%)" fill-opacity="1" d="M 755.859375 846.339844 C 773.238281 863.960938 811.335938 902.21875 841.144531 884.050781 L 845.617188 876.839844 L 830.910156 848.191406 L 808.28125 846.058594 C 808.28125 846.058594 787.828125 844.570312 785.617188 844.378906 C 783.40625 844.199219 755.859375 846.339844 755.859375 846.339844 "/>
<path fill-rule="evenodd" fill="rgb(24.705505%, 10.984802%, 18.821716%)" fill-opacity="1" d="M 791.570312 851.71875 C 781.234375 864.03125 758.609375 890.71875 746.164062 872.808594 L 744.789062 866.5 L 755.039062 845.011719 L 766.226562 845.761719 C 766.226562 845.761719 776.292969 846.789062 777.382812 846.890625 C 778.472656 846.980469 791.570312 851.71875 791.570312 851.71875 "/>
<path fill-rule="evenodd" fill="rgb(75.78125%, 45.092773%, 63.867188%)" fill-opacity="1" d="M 533.4375 1061.820312 C 497.855469 1173.160156 437.878906 946.691406 422.9375 891.039062 L 469.871094 876.128906 C 511.570312 964.539062 519.644531 991.871094 552.9375 1055.269531 L 533.4375 1061.820312 "/>
<path fill-rule="evenodd" fill="rgb(22.75238%, 20.776367%, 45.872498%)" fill-opacity="1" d="M 826.6875 1625.203125 C 817.328125 1677.980469 804.523438 1728.066406 793.757812 1779.148438 C 789.894531 1797.476562 790.394531 1792.855469 787.3125 1811.609375 L 782.359375 1839.460938 C 755.691406 1858.933594 736.269531 1861.40625 727.632812 1842.039062 C 731.8125 1791.574219 753.308594 1642.78125 753.933594 1592.148438 L 781.039062 1610.34375 C 781.039062 1610.34375 788.484375 1630.546875 797.027344 1628.109375 C 805.574219 1625.675781 808.535156 1622.289062 810.59375 1620.859375 C 812.648438 1619.425781 826.6875 1625.203125 826.6875 1625.203125 "/>
</svg>
